- 
http://www.Speed.Cd 
       
http://www.Speed.Cd      fast  and The Hottest Private Tracker on the net

(((--Submit for invite!!--)))

Please Seed back to make the speed Faster!!!

------------------nfo--------------------------
-








































          
          
              
              
                    
                    
                    
                    

Attack.The.Block.2011.BRRip.Xvid.AC3-SiC

Poster:
[img]http://img841.imageshack.us/img841/3277/attacktheblock.jpg[/img]

IMDB Link:
http://www.imdb.com/title/tt1478964/

Description:
A teen gang in South London defend their block from an alien invasion.

MediaInfo:
General
Complete name                    : Attack.The.Block.2011.BRRip.Xvid.AC3-SiC.avi
Format                           : AVI
Format/Info                      : Audio Video Interleave
File size                        : 1.20 GiB
Duration                         : 1h 27mn
Overall bit rate                 : 1 952 Kbps

Video
ID                               : 0
Format                           : MPEG-4 Visual
Format profile                   : Advanced Simple@L5
Format settings, BVOP            : Yes
Format settings, QPel            : No
Format settings, GMC             : No warppoints
Format settings, Matrix          : Default (H.263)
Muxing mode                      : Packed bitstream
Codec ID                         : XVID
Codec ID/Hint                    : XviD
Duration                         : 1h 27mn
Bit rate                         : 1 560 Kbps
Width                            : 720 pixels
Height                           : 304 pixels
Display aspect ratio             : 2.35:1
Frame rate                       : 24.000 fps
Resolution                       : 8 bits
Colorimetry                      : 4:2:0
Scan type                        : Progressive
Bits/(Pixel*Frame)               : 0.297
Stream size                      : 979 MiB (80%)
Writing library                  : XviD 64

Audio
ID                               : 1
Format                           : AC-3
Format/Info                      : Audio Coding 3
Format_Settings_ModeExtension    : CM (complete main)
Codec ID                         : 2000
Duration                         : 1h 27mn
Bit rate mode                    : Constant
Bit rate                         : 384 Kbps
Channel(s)                       : 6 channels
Channel positions                : Front: L C R, Side: L R, LFE
Sampling rate                    : 48.0 KHz
Stream size                      : 241 MiB (20%)
Alignment                        : Aligned on interleaves
Interleave, duration             : 64 ms (1.54 video frames)
Interleave, preload duration     : 192 ms
Title                            : 6ch English

Screenshots:
[img]http://img830.imageshack.us/img830/1008/vlcsnap2011091001h13m49.png[/img]
[img]http://img580.imageshack.us/img580/4431/vlcsnap2011091001h11m24.png[/img]
[img]http://img834.imageshack.us/img834/7612/vlcsnap2011091001h10m49.png[/img]
[img][img]http://img684.imageshack.us/img684/4006/infatb720pavisnapshot00.png[/img]
[img]http://img534.imageshack.us/img534/2117/vlcsnap2011091001h10m38.png[/img]
[img]http://img215.imageshack.us/img215/971/attacktheblock2011brrip.png[/img]

Note :   N/A

Source : BluRay-iNFAMOUS Thanks!!!

Enjoy!

Respects to CaptainHomey, Cyanide, CM8, Rx, THC, ELEKTRI4KA, 
Killerhz, PA, YeFsTe, BoxSlots, MrRep and everyone in the struggle...